<svg xmlns="http://www.w3.org/2000/svg" width="70mm" height="75mm" viewBox="0 0 7000 7500" shape-rendering="geometricPrecision" text-rendering="geometricPrecision" image-rendering="optimizeQuality" fill-rule="evenodd" clip-rule="evenodd"><defs><style>.fil1{fill:#139752}.fil11{fill:#4e4e4e}.fil5{fill:#516eb3}.fil3{fill:#5a7fbf}.fil10{fill:#626262}.fil9{fill:#858586}.fil13{fill:#938f8f}.fil8{fill:#a0a0a0}.fil7{fill:#c2c2c2}.fil4{fill:#d74134}.fil6{fill:#e0dbda}.fil12{fill:#e6e6e5}.fil2{fill:#f0a70c}.fil0{fill:#fcc300}</style></defs><g id="Слой_x0020_1"><g id="Group-_x002b_-Group-2-_x002b_-Group-3"><g><g id="Group"><path id="Shape" class="fil0" d="M1039 2500l-128-228-308 546h263l177-312-4-6z"/><path id="Shape_0" class="fil1" d="M772 2027l139 245-308 546H325l447-791z"/><path id="Shape_1" class="fil2" d="M866 2818l177-312-177 312z"/><path id="Shape_2" class="fil3" d="M603 1236H325l718 1270 138-246h1L603 1236z"/><path id="Shape_3" class="fil4" d="M1272 2101c25-46 25-102 0-148l-406-717H603l579 1024 90-159z"/><path id="Shape_4" class="fil5" d="M1043 2506l40-72-40 72zm-271-479l-447-791 447 791z"/><path id="Shape_5" class="fil6" d="M1272 2101l2-2-2 2z"/></g><g id="Group-2"><path id="Shape_6" class="fil7" d="M1039 4167l-128-228-308 545h263l177-311-4-6z"/><path id="Shape_7" class="fil8" d="M772 3694l139 245-308 545H325l447-790z"/><path id="Shape_8" class="fil2" d="M866 4484l177-311-177 311z"/><path id="Shape_9" class="fil9" d="M603 2903H325l718 1270 138-246h1L603 2903z"/><path id="Shape_10" class="fil10" d="M1272 3768c25-46 25-102 0-148l-406-717H603l579 1024 90-159z"/><path id="Shape_11" class="fil5" d="M1043 4173l40-72-40 72zm-271-479l-447-791 447 791z"/><path id="Shape_13" class="fil6" d="M1272 3768c0-1 1-1 2-2l-2 2z"/></g><g id="Group-3"><path id="Shape_14" class="fil0" d="M1039 5833l-128-227-308 545h263l177-312-4-6z"/><path id="Shape_15" class="fil1" d="M772 5361l139 245-308 545H325l447-790z"/><path id="Shape_16" class="fil2" d="M866 6151l177-312-177 312z"/><path id="Shape_17" class="fil3" d="M603 4570H325l718 1269 138-245h1L603 4570z"/><path id="Shape_18" class="fil4" d="M1272 5435c25-46 25-103 0-148l-406-717H603l579 1024 90-159z"/><path id="Shape_19" class="fil5" d="M1043 5839l40-71-40 71zm-271-478l-447-791 447 791z"/><path id="Shape_21" class="fil6" d="M1272 5435c0-1 1-2 2-2l-2 2z"/></g></g></g><path id="DevFest" class="fil11" d="M5763 2165v580h-78v-483l-113 49-30-66 171-80h50zm-363 290c0-67-14-121-42-164s-65-65-111-65-83 22-111 65-42 97-42 164 14 122 42 165c28 42 65 64 111 64s83-22 111-65 42-98 42-164zm-386 0c0-88 22-161 65-218 44-57 100-85 168-85s124 29 168 86c43 57 65 130 65 217s-22 159-65 218c-44 57-100 85-168 85s-124-28-168-85c-43-59-65-131-65-218zm-74 215v75h-370v-78l150-152c50-51 85-90 104-115 20-26 29-53 29-81 0-26-10-47-29-65-20-19-46-28-77-28-26 0-49 8-68 24s-32 35-37 58l-72-29c12-36 33-66 66-90 32-25 70-37 113-37 53 0 96 16 131 48s53 72 53 119c0 56-31 116-93 181l-169 170h269zm-817-354c58 0 103 16 137 46 33 31 50 73 50 127v256h-75v-58h-3c-32 47-75 71-129 71-46 0-84-13-115-41-30-27-46-60-46-101 0-43 16-77 49-103 32-25 76-38 130-38 46 0 84 9 114 26v-18c0-27-11-50-32-69s-47-28-75-28c-44 0-78 18-104 55l-68-44c38-54 93-81 167-81zm-100 302c0 20 8 37 25 50 18 14 38 21 61 21 33 0 62-12 88-37 25-24 38-52 38-85-24-19-58-29-101-29-32 0-58 8-80 23-21 15-31 34-31 57zm-154-288v415h-78v-415h78zm16-143c0 15-6 28-16 39-11 10-24 16-39 16-16 0-29-6-39-16-11-11-16-24-16-39 0-16 5-29 16-39 10-11 23-16 39-16 15 0 28 5 39 16 10 10 16 23 16 39zm-331 558h-77v-415h74v67h3c8-22 25-40 49-56 25-15 49-23 72-23s42 3 58 10l-24 75c-9-4-24-6-45-6-30 0-55 12-77 36s-33 51-33 83v229zm-469-258h237c-2-29-14-52-35-71s-49-29-85-29c-29 0-54 9-76 27-21 18-35 43-41 73zm124 271c-61 0-111-21-151-63-39-41-59-94-59-158 0-63 19-116 58-158 38-42 87-63 147-63 61 0 110 20 147 60 36 40 54 95 54 167v9h-326c1 40 14 73 40 98s57 37 93 37c50 0 89-25 117-74l70 33c-19 35-45 63-78 83-33 19-70 29-112 29zm-467-71c37 0 68-14 94-42 25-28 38-64 38-108 0-43-13-79-38-107-26-29-57-43-94-43-38 0-70 14-95 43-25 28-37 64-37 107 0 44 12 80 37 109 25 27 57 41 95 41zm12 71c-30 0-58-6-83-19s-45-31-58-52h-3v58h-75v-607h78v192l-3 57h3c13-21 33-38 58-51s53-20 83-20c55 0 101 22 139 65 39 43 59 95 59 156 0 62-20 114-59 157-38 43-84 64-139 64zm-321-428v415h-77v-415h77zm17-143c0 15-6 28-17 39-10 10-23 16-39 16-15 0-28-6-38-16-11-11-17-24-17-39 0-16 6-29 17-39 10-11 23-16 38-16 16 0 29 5 39 16 11 10 17 23 17 39zm-182 396c0 53-19 96-58 128-40 31-88 47-144 47-50 0-95-15-133-44s-65-69-80-120l75-31c5 18 12 35 21 50 9 14 20 27 32 37 12 11 25 19 40 25s30 9 47 9c35 0 64-10 87-28 22-18 34-43 34-73 0-26-10-47-28-65s-50-35-98-51c-49-18-79-29-91-36-64-32-97-81-97-144 0-45 18-83 54-115 36-31 80-47 133-47 46 0 86 12 120 35 34 24 56 53 68 88l-73 30c-7-23-20-41-40-56s-45-23-74-23c-30 0-56 9-77 26-21 16-31 36-31 62 0 20 8 38 25 54 18 15 57 33 117 54 62 21 106 46 132 77 26 30 39 67 39 111zm2472-678c-34 0-62-11-85-32-22-21-33-50-34-87v-232h-73v-71h73v-127h78v127h102v71h-102v207c0 27 5 46 16 56s23 15 37 15c6 0 12-1 18-2 6-2 11-3 16-6l25 70c-20 7-44 11-71 11zm-228-122c0 36-16 66-47 91-32 25-72 37-120 37-42 0-78-10-110-32-31-22-54-51-68-86l70-30c10 25 25 44 44 58 20 14 41 21 64 21 25 0 46-5 62-16 17-11 25-23 25-38 0-27-20-46-61-59l-71-17c-80-21-121-60-121-117 0-38 16-68 46-91 31-23 71-34 118-34 37 0 70 8 100 26 30 17 50 41 62 70l-69 29c-8-18-21-31-39-41s-37-15-59-15c-21 0-39 5-55 15s-24 23-24 37c0 24 22 41 67 51l62 16c83 21 124 62 124 125zm-714-142h238c-2-29-14-53-35-72s-50-28-85-28c-29 0-55 9-76 27s-35 42-42 73zm125 270c-61 0-111-20-151-62s-59-95-59-159c0-63 19-115 57-157 39-42 88-63 148-63 61 0 110 19 147 59 36 40 54 96 54 167l-1 9h-326c1 41 15 73 41 98s57 37 93 37c50 0 89-24 117-74l69 34c-18 35-44 62-77 82s-71 29-112 29zm-512-273v260h-78v-606h354v74h-276v199h249v73h-249zm-311 260h-78l-168-415h85l122 322h1l124-322h83l-169 415zm-585-257h238c-3-29-14-53-36-72-21-19-49-28-85-28-29 0-54 9-75 27-22 18-36 42-42 73zm124 270c-61 0-111-20-151-62-39-42-59-95-59-159 0-63 19-115 58-157 38-42 87-63 147-63 62 0 111 19 147 59s55 96 55 167l-1 9h-326c1 41 14 73 40 98s57 37 94 37c49 0 88-24 116-74l70 34c-19 35-45 62-78 82s-70 29-112 29zm-667-545v457h108c70 0 126-20 166-60 41-40 61-97 61-168s-20-127-61-168c-40-40-96-61-166-61h-108zm-78 532v-606h186c92 0 166 28 223 84 56 55 84 129 84 219 0 91-28 164-84 220-57 55-131 83-223 83h-186zm4028 338v-69h380v56c-37 39-74 92-111 157-37 66-65 133-85 203-14 48-24 102-28 160h-73c0-46 9-101 27-166 17-66 42-128 74-189 33-60 67-111 104-152h-288z"/><path id="DevFest_22" class="fil12" d="M5763 5499v579h-78v-482l-113 49-30-66 171-80h50zm-363 290c0-67-14-122-42-164-28-43-65-65-111-65s-83 22-111 65c-28 42-42 97-42 164 0 66 14 121 42 165 28 42 65 63 111 63s83-21 111-64 42-98 42-164zm-386 0c0-88 22-161 65-218 44-57 100-85 168-85s124 28 168 86c43 57 65 129 65 217 0 87-22 159-65 217-44 57-100 86-168 86s-124-29-168-86c-43-58-65-130-65-217zm-74 215v74h-370v-78l150-151c50-51 85-90 104-116 20-25 29-52 29-81 0-25-10-47-29-65-20-18-46-27-77-27-26 0-49 8-68 24s-32 35-37 57l-72-28c12-36 33-66 66-91 32-24 70-36 113-36 53 0 96 16 131 48s53 72 53 118c0 56-31 117-93 182l-169 170h269zm-817-354c58 0 103 15 137 46 33 31 50 73 50 127v255h-75v-57h-3c-32 47-75 71-129 71-46 0-84-14-115-41-30-27-46-61-46-101 0-43 16-77 49-103 32-25 76-38 130-38 46 0 84 9 114 25v-17c0-27-11-50-32-69s-47-29-75-29c-44 0-78 19-104 55l-68-43c38-54 93-81 167-81zm-100 301c0 21 8 38 25 51 18 14 38 20 61 20 33 0 62-12 88-36 25-24 38-53 38-85-24-20-58-29-101-29-32 0-58 7-80 23-21 15-31 34-31 56zm-154-288v415h-78v-415h78zm16-143c0 16-6 29-16 39-11 11-24 16-39 16-16 0-29-5-39-16-11-10-16-23-16-39 0-15 5-28 16-39 10-10 23-16 39-16 15 0 28 6 39 16 10 11 16 24 16 39zm-331 558h-77v-415h74v68h3c8-22 25-41 49-56 25-16 49-23 72-23s42 3 58 10l-24 75c-9-4-24-6-45-6-30 0-55 12-77 36-22 23-33 51-33 83v228zm-469-257h237c-2-29-14-53-35-72s-49-28-85-28c-29 0-54 9-76 27-21 18-35 42-41 73zm124 271c-61 0-111-21-151-63-39-42-59-94-59-158 0-63 19-116 58-158 38-42 87-63 147-63 61 0 110 20 147 60 36 39 54 95 54 167v8h-326c1 41 14 74 40 99 26 24 57 37 93 37 50 0 89-25 117-75l70 34c-19 35-45 62-78 82s-70 30-112 30zm-467-71c37 0 68-14 94-43 25-27 38-63 38-107s-13-79-38-108c-26-28-57-42-94-42-38 0-70 14-95 42-25 29-37 64-37 108s12 80 37 108 57 42 95 42zm12 71c-30 0-58-7-83-20s-45-30-58-51h-3v57h-75v-606h78v191l-3 58h3c13-21 33-39 58-52s53-19 83-19c55 0 101 21 139 64 39 44 59 96 59 157s-20 114-59 157c-38 42-84 64-139 64zm-321-429v415h-77v-415h77zm17-143c0 16-6 29-17 39-10 11-23 16-39 16-15 0-28-5-38-16-11-10-17-23-17-39 0-15 6-28 17-39 10-10 23-16 38-16 16 0 29 6 39 16 11 11 17 24 17 39zm-182 397c0 53-19 95-58 127-40 32-88 48-144 48-50 0-95-15-133-44-38-30-65-70-80-120l75-31c5 18 12 35 21 49 9 15 20 27 32 38 12 10 25 19 40 24 15 6 30 9 47 9 35 0 64-9 87-27 22-18 34-43 34-73 0-26-10-48-28-66-18-17-50-34-98-50-49-18-79-30-91-36-64-33-97-81-97-145 0-44 18-82 54-114s80-47 133-47c46 0 86 11 120 35 34 23 56 52 68 87l-73 31c-7-23-20-42-40-56-20-15-45-23-74-23-30 0-56 9-77 25s-31 37-31 62c0 21 8 39 25 54 18 16 57 34 117 55 62 21 106 46 132 76s39 68 39 112zm2472-679c-34 0-62-10-85-31-22-21-33-50-34-87v-232h-73v-71h73v-127h78v127h102v71h-102v207c0 27 5 46 16 56s23 15 37 15c6 0 12-1 18-2 6-2 11-4 16-6l25 69c-20 8-44 11-71 11zm-228-121c0 36-16 66-47 91-32 25-72 37-120 37-42 0-78-11-110-32-31-22-54-51-68-86l70-30c10 25 25 44 44 58 20 14 41 21 64 21 25 0 46-6 62-16 17-11 25-24 25-38 0-27-20-46-61-59l-71-18c-80-20-121-59-121-116 0-38 16-69 46-91 31-23 71-35 118-35 37 0 70 9 100 26 30 18 50 41 62 71l-69 29c-8-18-21-32-39-42-18-9-37-14-59-14-21 0-39 5-55 15s-24 22-24 37c0 24 22 41 67 51l62 16c83 20 124 62 124 125zm-714-143h238c-2-29-14-52-35-71s-50-29-85-29c-29 0-55 9-76 27-21 19-35 43-42 73zm125 271c-61 0-111-21-151-62-40-42-59-95-59-159 0-63 19-116 57-158 39-42 88-63 148-63 61 0 110 20 147 60 36 40 54 95 54 167l-1 9h-326c1 40 15 73 41 98s57 37 93 37c50 0 89-25 117-74l69 33c-18 35-44 63-77 83-33 19-71 29-112 29zm-512-273v260h-78v-607h354v75h-276v199h249v73h-249zm-311 260h-78l-168-415h85l122 322h1l124-322h83l-169 415zm-585-258h238c-3-29-14-52-36-71-21-19-49-29-85-29-29 0-54 9-75 27-22 19-36 43-42 73zm124 271c-61 0-111-21-151-62-39-42-59-95-59-159 0-63 19-116 58-158 38-42 87-63 147-63 62 0 111 20 147 60s55 95 55 167l-1 9h-326c1 40 14 73 40 98s57 37 94 37c49 0 88-25 116-74l70 33c-19 35-45 63-78 83-33 19-70 29-112 29zm-667-545v457h108c70 0 126-20 166-60 41-41 61-97 61-168 0-72-20-127-61-168-40-41-96-61-166-61h-108zm-78 532v-607h186c92 0 166 28 223 84 56 56 84 129 84 220 0 90-28 164-84 219-57 56-131 84-223 84h-186zm4028 337v-68h380v55c-37 40-74 92-111 158-37 65-65 133-85 202-14 49-24 103-28 161h-73c0-46 9-102 27-167 17-65 42-128 74-188 33-60 67-111 104-153h-288z"/><path id="DevFest_23" class="fil13" d="M5763 3832v579h-78v-482l-113 49-30-66 171-80h50zm-363 290c0-67-14-121-42-164s-65-65-111-65-83 22-111 65-42 97-42 164 14 122 42 165c28 42 65 64 111 64s83-22 111-65 42-98 42-164zm-386 0c0-88 22-161 65-218 44-57 100-85 168-85s124 29 168 86c43 57 65 129 65 217 0 87-22 159-65 218-44 57-100 85-168 85s-124-28-168-85c-43-59-65-131-65-218zm-74 215v74h-370v-77l150-152c50-51 85-90 104-116 20-25 29-52 29-80 0-26-10-48-29-66-20-18-46-27-77-27-26 0-49 8-68 24s-32 35-37 58l-72-29c12-36 33-66 66-90 32-25 70-37 113-37 53 0 96 16 131 48s53 72 53 119c0 55-31 116-93 181l-169 170h269zm-817-354c58 0 103 15 137 46 33 31 50 73 50 127v255h-75v-57h-3c-32 47-75 71-129 71-46 0-84-14-115-41-30-27-46-61-46-101 0-43 16-77 49-103 32-25 76-38 130-38 46 0 84 9 114 26v-18c0-27-11-50-32-69s-47-29-75-29c-44 0-78 19-104 56l-68-44c38-54 93-81 167-81zm-100 301c0 21 8 38 25 51 18 14 38 21 61 21 33 0 62-13 88-37 25-24 38-53 38-85-24-20-58-29-101-29-32 0-58 8-80 23-21 15-31 34-31 56zm-154-287v414h-78v-414h78zm16-143c0 15-6 28-16 38-11 11-24 17-39 17-16 0-29-6-39-17-11-10-16-23-16-38 0-16 5-29 16-39 10-11 23-17 39-17 15 0 28 6 39 17 10 10 16 23 16 39zm-331 557h-77v-414h74v67h3c8-22 25-40 49-56 25-15 49-23 72-23s42 3 58 10l-24 75c-9-4-24-6-45-6-30 0-55 12-77 36s-33 51-33 83v228zm-469-257h237c-2-29-14-53-35-71-21-19-49-29-85-29-29 0-54 9-76 27-21 18-35 43-41 73zm124 271c-61 0-111-21-151-63-39-41-59-94-59-158 0-63 19-116 58-158 38-42 87-63 147-63 61 0 110 20 147 60 36 40 54 95 54 167v8h-326c1 41 14 74 40 99 26 24 57 37 93 37 50 0 89-25 117-75l70 34c-19 35-45 63-78 82-33 20-70 30-112 30zm-467-71c37 0 68-14 94-42 25-28 38-64 38-108 0-43-13-79-38-107-26-29-57-43-94-43-38 0-70 14-95 43-25 28-37 64-37 107 0 44 12 80 37 108s57 42 95 42zm12 71c-30 0-58-6-83-19s-45-31-58-52h-3v57h-75v-606h78v192l-3 57h3c13-21 33-38 58-51s53-20 83-20c55 0 101 22 139 64 39 44 59 96 59 157 0 62-20 114-59 157-38 43-84 64-139 64zm-321-428v414h-77v-414h77zm17-143c0 15-6 28-17 38-10 11-23 17-39 17-15 0-28-6-38-17-11-10-17-23-17-38 0-16 6-29 17-39 10-11 23-17 38-17 16 0 29 6 39 17 11 10 17 23 17 39zm-182 396c0 53-19 95-58 128-40 31-88 47-144 47-50 0-95-15-133-44s-65-69-80-120l75-31c5 18 12 35 21 49 9 15 20 28 32 38 12 11 25 19 40 25s30 9 47 9c35 0 64-10 87-28 22-18 34-43 34-73 0-26-10-47-28-65s-50-35-98-51c-49-18-79-30-91-36-64-33-97-81-97-145 0-44 18-82 54-114 36-31 80-47 133-47 46 0 86 12 120 35s56 52 68 87l-73 31c-7-23-20-41-40-56s-45-23-74-23c-30 0-56 9-77 26-21 15-31 36-31 61 0 21 8 39 25 55 18 15 57 33 117 54 62 21 106 46 132 76 26 31 39 68 39 112zm2472-678c-34 0-62-11-85-32-22-21-33-50-34-87v-232h-73v-71h73v-127h78v127h102v71h-102v207c0 27 5 46 16 56s23 15 37 15c6 0 12-1 18-2 6-2 11-4 16-6l25 70c-20 7-44 11-71 11zm-228-122c0 36-16 66-47 91-32 25-72 37-120 37-42 0-78-11-110-32-31-22-54-51-68-86l70-30c10 25 25 44 44 58 20 14 41 21 64 21 25 0 46-5 62-16 17-11 25-24 25-38 0-27-20-46-61-59l-71-17c-80-21-121-60-121-117 0-38 16-68 46-91 31-23 71-35 118-35 37 0 70 9 100 27 30 17 50 41 62 70l-69 29c-8-18-21-31-39-41s-37-15-59-15c-21 0-39 5-55 15s-24 23-24 37c0 24 22 41 67 51l62 16c83 21 124 62 124 125zm-714-143h238c-2-28-14-52-35-71s-50-28-85-28c-29 0-55 9-76 27s-35 42-42 72zm125 271c-61 0-111-21-151-62-40-42-59-95-59-159 0-63 19-115 57-158 39-42 88-63 148-63 61 0 110 20 147 60 36 40 54 96 54 167l-1 9h-326c1 40 15 73 41 98s57 37 93 37c50 0 89-25 117-74l69 34c-18 35-44 62-77 82-33 19-71 29-112 29zm-512-273v260h-78v-606h354v74h-276v199h249v73h-249zm-311 260h-78l-168-415h85l122 322h1l124-322h83l-169 415zm-585-258h238c-3-28-14-52-36-71-21-19-49-28-85-28-29 0-54 9-75 27-22 18-36 42-42 72zm124 271c-61 0-111-21-151-62-39-42-59-95-59-159 0-63 19-115 58-158 38-42 87-63 147-63 62 0 111 20 147 60s55 96 55 167l-1 9h-326c1 40 14 73 40 98s57 37 94 37c49 0 88-25 116-74l70 34c-19 35-45 62-78 82-33 19-70 29-112 29zm-667-545v457h108c70 0 126-20 166-60 41-41 61-97 61-168s-20-127-61-168c-40-41-96-61-166-61h-108zm-78 532v-606h186c92 0 166 28 223 83 56 56 84 129 84 220s-28 164-84 219c-57 56-131 84-223 84h-186zm4028 338v-69h380v56c-37 39-74 92-111 157-37 66-65 133-85 202-14 49-24 103-28 161h-73c0-46 9-102 27-167 17-65 42-127 74-188 33-60 67-111 104-152h-288z"/></g></svg>